Coordinates
version=1
nRows=7
nColumns=40
inDegrees=yes

Units are S.I. units (second, meters, Newtons, ...)
Angles are in degrees.

endheader
time	pelvis_tilt	pelvis_list	pelvis_rotation	pelvis_tx	pelvis_ty	pelvis_tz	hip_flexion_r	hip_adduction_r	hip_rotation_r	knee_angle_r	knee_angle_r_beta	ankle_angle_r	subtalar_angle_r	mtp_angle_r	hip_flexion_l	hip_adduction_l	hip_rotation_l	knee_angle_l	knee_angle_l_beta	ankle_angle_l	subtalar_angle_l	mtp_angle_l	lumbar_extension	lumbar_bending	lumbar_rotation	arm_flex_r	arm_add_r	arm_rot_r	elbow_flex_r	pro_sup_r	wrist_flex_r	wrist_dev_r	arm_flex_l	arm_add_l	arm_rot_l	elbow_flex_l	pro_sup_l	wrist_flex_l	wrist_dev_l
     44.16314286	     -4.56039398	     -4.90927212	     -4.29720733	      0.99353821	      0.91434158	      0.43423523	     22.47343976	     -6.49624653	     -3.49795670	     63.35366287	     63.35366287	      3.94670367	    -18.02952920	      4.30541564	     17.43191667	     -3.01666038	     -4.51064266	     34.04802465	     34.04802465	     23.70626129	    -18.74106183	     13.45197409	    -11.67998456	      8.41268848	      2.36844225	      5.18609246	    -12.22748399	    -25.60998354	     21.27916398	     47.25070290	      0.00000000	      0.00000000	     23.77759580	    -19.07199616	      8.45405831	     46.40264626	     46.36140851	      0.00000000	      0.00000000
     44.18128571	     -4.66782642	     -4.89437390	     -5.01239977	      0.99184989	      0.91546597	      0.43463342	     23.95423986	     -6.21186067	     -3.51462584	     63.04070200	     63.04070200	      4.73848172	    -18.26868932	      4.41594979	     16.81050733	     -3.13384923	     -5.19786936	     33.36620784	     33.36620784	     23.67702622	    -18.67030577	     13.50168923	    -11.74779226	      8.53871367	      2.17403844	      2.91020805	    -11.71622721	    -25.59900667	     20.28241214	     47.27317450	      0.00000000	      0.00000000	     25.42524716	    -19.76674768	      7.91413301	     47.42331694	     46.43986123	      0.00000000	      0.00000000
     44.19942857	     -4.75510949	     -4.85650001	     -5.84319066	      0.99009925	      0.91734505	      0.43549897	     25.23416488	     -5.77503056	     -3.42271343	     61.94989769	     61.94989769	      5.93974628	    -18.25974226	      5.07936601	     15.96873463	     -3.24045327	     -6.00580655	     32.31066395	     32.31066395	     23.35796921	    -18.61110815	     13.29351630	    -11.98372113	      8.53644701	      3.02212173	      0.25055542	    -11.47964377	    -25.45035340	     19.17593992	     47.29256686	      0.00000000	      0.00000000	     27.26639725	    -19.57047769	      6.87692930	     49.69554935	     46.58324647	      0.00000000	      0.00000000
     44.21757143	     -4.92500364	     -4.90356325	     -6.63968216	      0.98827044	      0.91975934	      0.43667186	     26.31769230	     -5.18233452	     -3.45853406	     59.96424578	     59.96424578	      6.96223036	    -18.08364915	      5.19379894	     15.10346290	     -3.44262563	     -6.80513397	     31.02460264	     31.02460264	     22.87942147	    -18.49265573	     13.13853699	    -12.10030996	      8.67737117	      3.03677728	     -1.84230617	    -11.12005036	    -25.31604228	     18.65729584	     47.28907986	      0.00000000	      0.00000000	     28.69001113	    -20.06886801	      5.78842644	     51.33727217	     46.71481308	      0.00000000	      0.00000000
     44.23571429	     -5.14539320	     -4.99770064	     -7.45214904	      0.98642921	      0.92248850	      0.43821551	     27.14425592	     -4.44404096	     -3.50114640	     57.12905672	     57.12905672	      7.81792509	    -17.62133122	      4.72519558	     14.21733637	     -3.69417375	     -7.59654642	     29.60734037	     29.60734037	     22.26114468	    -18.37734047	     12.94993031	    -12.17235651	      8.83357502	      3.04609679	     -3.79493466	    -10.84890048	    -25.15694407	     18.41206588	     47.27179028	      0.00000000	      0.00000000	     30.00826757	    -20.53796600	      4.58938727	     53.13151123	     46.85335386	      0.00000000	      0.00000000
     44.25385714	     -5.48576321	     -5.13265368	     -8.26156856	      0.98459834	      0.92518257	      0.44009440	     27.67602604	     -3.67458240	     -3.71365612	     53.28632117	     53.28632117	      7.47130814	    -17.05785476	      0.89598064	     13.37167145	     -4.03199752	     -8.50227399	     28.01078215	     28.01078215	     21.06002893	    -18.27141104	     11.34745716	    -12.15292108	      9.06097288	      2.50995910	     -5.85633615	    -10.63468727	    -24.07367542	     19.91702961	     47.09961328	      0.00000000	      0.00000000	     30.20133695	    -21.08361887	      1.14224983	     56.62065726	     47.19124685	      0.00000000	      0.00000000
     44.27200000	     -5.75240198	     -5.26426439	     -9.06007483	      0.98284562	      0.92798811	      0.44219089	     27.89432418	     -2.82867696	     -3.79534182	     48.97346118	     48.97346118	      8.09547149	    -15.44545097	      0.33840260	     12.47855814	     -4.30105214	     -9.23791538	     26.53081509	     26.53081509	     20.57349006	    -18.08709380	     11.70667771	    -12.10968974	      9.27133150	      2.58159539	     -7.32845015	    -10.58940689	    -23.86775686	     19.56770256	     47.08594347	      0.00000000	      0.00000000	     31.64035773	    -21.62401549	      0.61965697	     57.80952931	     47.26015225	      0.00000000	      0.00000000
